<svg width="21" height="22" viewBox="0 0 21 22" fill="none" xmlns="http://www.w3.org/2000/svg">
<path d="M17.7547 20.8533C16.0424 20.8533 14.7904 19.6434 14.7904 17.9936C14.7904 17.9569 14.7904 17.9203 14.7904 17.8653C14.6431 17.8653 14.7904 1 14.7904 1H1L1.34982 18.2136C1.34982 19.7534 2.60183 21 4.14841 21L17.2392 20.8167" stroke="#2A2E37" stroke-miterlimit="10" stroke-linecap="round" stroke-linejoin="round"/>
<path d="M15.4165 19.8449C15.9873 20.4681 16.8158 20.8531 17.7364 20.8531C19.4487 20.8531 20.1483 19.6432 20.1483 17.9934C20.1483 17.9567 20.1483 17.92 20.1483 17.865L20.1667 5.61938H16.0977" stroke="#2A2E37" stroke-miterlimit="10" stroke-linecap="round" stroke-linejoin="round"/>
<path d="M9.6069 11.8553L10.2247 11.2175C10.6734 10.7542 11.4374 10.8313 11.7857 11.3748L12.4164 12.3593" stroke="#2A2E37" stroke-linecap="round"/>
<path d="M11 10.9566C11 12.7895 9.50762 14.2754 7.66667 14.2754C5.82572 14.2754 4.33334 12.7895 4.33334 10.9566C4.33334 9.1236 5.82572 7.6377 7.66667 7.6377C8.57533 7.6377 9.39908 7.9997 10.0004 8.58676" stroke="#2A2E37" stroke-linecap="round"/>
</svg>
