<svg width="18" height="24" viewBox="0 0 18 24" fill="none" xmlns="http://www.w3.org/2000/svg">
<path d="M11.1619 3.75626H15.641C16.5471 3.75626 17.285 4.50797 17.285 5.43112V21.3251C17.285 22.2483 16.5471 23 15.641 23H2.64403C1.73787 23 1 22.2483 1 21.3251V5.43112C1 4.50797 1.73787 3.75626 2.64403 3.75626H6.90299L6.92888 3.13643C6.92888 1.96271 7.87387 1 9.02598 1C10.1781 1 11.1231 1.96271 11.1231 3.13643L11.1619 3.75626Z" stroke="#2A2E37" stroke-miterlimit="10" stroke-linecap="round" stroke-linejoin="round"/>
<path d="M5.05182 4.05967V7.0665H12.8059V3.90344" stroke="#2A2E37" stroke-miterlimit="10" stroke-linecap="round" stroke-linejoin="round"/>
<path d="M4.90926 10.1246H13.1812" stroke="#2A2E37" stroke-miterlimit="10" stroke-linecap="round" stroke-linejoin="round"/>
<path d="M4.90926 12.1426H13.1812" stroke="#2A2E37" stroke-miterlimit="10" stroke-linecap="round" stroke-linejoin="round"/>
<path d="M4.90926 14.147H13.1812" stroke="#2A2E37" stroke-miterlimit="10" stroke-linecap="round" stroke-linejoin="round"/>
<path d="M4.90926 16.165H13.1812" stroke="#2A2E37" stroke-miterlimit="10" stroke-linecap="round" stroke-linejoin="round"/>
<path d="M4.90926 18.1696H7.64068" stroke="#2A2E37" stroke-miterlimit="10" stroke-linecap="round" stroke-linejoin="round"/>
<path d="M9.28491 19.3696L10.6442 20.7675L12.9095 18.4596" stroke="#2A2E37" stroke-miterlimit="10" stroke-linecap="round" stroke-linejoin="round"/>
</svg>
