<svg width="22" height="19" viewBox="0 0 22 19" fill="none" xmlns="http://www.w3.org/2000/svg">
<path d="M6.09229 9.95699L6.86322 4.70111H8.64955H15.5128L16.3966 10.1735" stroke="#2A2E37" stroke-miterlimit="10" stroke-linejoin="round"/>
<path d="M8.6685 4.64171L8.81893 2.88976H9.96594V1H12.2976V2.87007H13.4822L13.7642 4.50392" stroke="#2A2E37" stroke-miterlimit="10" stroke-linejoin="round"/>
<path d="M5.18975 16.8072C5.11454 16.5906 3.96753 11.0198 3.96753 11.0198L11.2068 7.77179L18.3145 11.0592L17.1863 16.8072" stroke="#2A2E37" stroke-miterlimit="10" stroke-linejoin="round"/>
<path d="M11.2068 7.75177V14.4447" stroke="#2A2E37" stroke-miterlimit="10" stroke-linejoin="round"/>
<path d="M22 18.008C20.1761 18.008 20.1761 16.4332 18.3333 16.4332C16.5094 16.4332 16.5094 18.008 14.6667 18.008C12.8427 18.008 12.8427 16.4332 11 16.4332C9.17607 16.4332 9.17607 18.008 7.33333 18.008C5.5094 18.008 5.5094 16.4332 3.66667 16.4332C1.84274 16.4332 1.84274 18.008 0 18.008" stroke="#2A2E37" stroke-miterlimit="10" stroke-linejoin="round"/>
</svg>
