<svg width="21" height="22" viewBox="0 0 21 22" fill="none" xmlns="http://www.w3.org/2000/svg">
<path d="M17.7547 20.8533C16.0424 20.8533 14.7904 19.6434 14.7904 17.9936C14.7904 17.9569 14.7904 17.9203 14.7904 17.8653C14.6431 17.8653 14.7904 1 14.7904 1H1L1.34982 18.2136C1.34982 19.7534 2.60183 21 4.14841 21L17.2392 20.8167" stroke="#2A2E37" stroke-miterlimit="10" stroke-linecap="round" stroke-linejoin="round"/>
<path d="M15.4165 19.8451C15.9873 20.4684 16.8158 20.8534 17.7364 20.8534C19.4487 20.8534 20.1483 19.6435 20.1483 17.9936C20.1483 17.9569 20.1483 17.9203 20.1483 17.8653L20.1667 5.61963H16.0977" stroke="#2A2E37" stroke-miterlimit="10" stroke-linecap="round" stroke-linejoin="round"/>
<path d="M7.84784 12.84C7.74384 12.84 7.66384 12.808 7.60784 12.744C7.55184 12.672 7.52384 12.576 7.52384 12.456C7.52384 12.176 7.55584 11.916 7.61984 11.676C7.69184 11.428 7.79984 11.176 7.94384 10.92C8.09584 10.664 8.29984 10.388 8.55584 10.092C8.75584 9.852 8.91584 9.64 9.03584 9.456C9.15584 9.272 9.23984 9.096 9.28784 8.928C9.34384 8.752 9.37184 8.576 9.37184 8.4C9.37184 8.064 9.25184 7.8 9.01184 7.608C8.77184 7.408 8.43984 7.308 8.01584 7.308C7.64784 7.308 7.30784 7.364 6.99584 7.476C6.69184 7.58 6.39584 7.74 6.10784 7.956C5.98784 8.036 5.87584 8.076 5.77184 8.076C5.67584 8.076 5.59584 8.048 5.53184 7.992C5.46784 7.936 5.42384 7.864 5.39984 7.776C5.38384 7.688 5.39584 7.596 5.43584 7.5C5.48384 7.404 5.56384 7.316 5.67584 7.236C5.98784 6.988 6.35584 6.792 6.77984 6.648C7.20384 6.504 7.63184 6.432 8.06384 6.432C8.51984 6.432 8.91984 6.512 9.26384 6.672C9.61584 6.824 9.88784 7.044 10.0798 7.332C10.2718 7.612 10.3678 7.944 10.3678 8.328C10.3678 8.576 10.3318 8.816 10.2598 9.048C10.1878 9.272 10.0718 9.5 9.91184 9.732C9.75984 9.964 9.54384 10.228 9.26384 10.524C9.01584 10.78 8.81584 11.02 8.66384 11.244C8.51184 11.46 8.39584 11.672 8.31584 11.88C8.24384 12.08 8.19584 12.292 8.17184 12.516C8.16384 12.612 8.13184 12.692 8.07584 12.756C8.01984 12.812 7.94384 12.84 7.84784 12.84ZM7.83584 15.048C7.63584 15.048 7.47184 14.988 7.34384 14.868C7.22384 14.74 7.16384 14.58 7.16384 14.388C7.16384 14.196 7.22384 14.04 7.34384 13.92C7.47184 13.792 7.63584 13.728 7.83584 13.728C8.03584 13.728 8.19184 13.792 8.30384 13.92C8.42384 14.04 8.48384 14.196 8.48384 14.388C8.48384 14.58 8.42384 14.74 8.30384 14.868C8.19184 14.988 8.03584 15.048 7.83584 15.048Z" fill="#2A2E37"/>
</svg>
